<svg width="58" height="56" viewBox="0 0 58 56" fill="none" xmlns="http://www.w3.org/2000/svg">
<path d="M56.0766 20.1387L38.7202 17.6162L30.9614 1.88674C30.7495 1.45608 30.4009 1.10745 29.9702 0.895533C28.8901 0.36233 27.5776 0.806666 27.0376 1.88674L19.2788 17.6162L1.92235 20.1387C1.44384 20.2071 1.00634 20.4326 0.671378 20.7744C0.266428 21.1907 0.0432829 21.7506 0.0509737 22.3313C0.0586645 22.9119 0.296562 23.4658 0.712393 23.8711L13.27 36.1143L10.3032 53.4024C10.2336 53.8045 10.2781 54.2181 10.4317 54.5963C10.5852 54.9744 10.8416 55.302 11.1718 55.5418C11.5021 55.7817 11.8929 55.9242 12.3 55.9532C12.7071 55.9823 13.1142 55.8966 13.4751 55.7061L28.9995 47.544L44.5239 55.7061C44.9477 55.9317 45.4399 56.0069 45.9116 55.9248C47.1011 55.7197 47.9009 54.5918 47.6958 53.4024L44.729 36.1143L57.2866 23.8711C57.6284 23.5362 57.854 23.0987 57.9224 22.6201C58.1069 21.4239 57.2729 20.3164 56.0766 20.1387Z" fill="#041562"/>
</svg>
